<svg width="500" height="500" viewBox="0 0 500 500" fill="none" xmlns="http://www.w3.org/2000/svg">
<path d="M332 281C351.882 281 368 264.882 368 245C368 225.118 351.882 209 332 209C312.118 209 296 225.118 296 245C296 264.882 312.118 281 332 281Z" fill="#393939"/>
<path d="M160 281C179.882 281 196 264.882 196 245C196 225.118 179.882 209 160 209C140.118 209 124 225.118 124 245C124 264.882 140.118 281 160 281Z" fill="#95D0D5"/>
<path d="M252 444C271.882 444 288 427.882 288 408C288 388.118 271.882 372 252 372C232.118 372 216 388.118 216 408C216 427.882 232.118 444 252 444Z" fill="#FD7E50"/>
<path d="M368 128C368 137.455 366.138 146.818 362.519 155.553C358.901 164.289 353.598 172.226 346.912 178.912C340.226 185.598 332.289 190.901 323.553 194.519C314.818 198.138 305.455 200 296 200V128H368Z" fill="#FD7E50"/>
<path d="M296 200C286.545 200 277.182 198.138 268.447 194.519C259.711 190.901 251.774 185.598 245.088 178.912C238.402 172.226 233.099 164.289 229.481 155.553C225.862 146.818 224 137.455 224 128L296 128V200Z" fill="#95D0D5"/>
<path d="M204 128C204 147.096 196.414 165.409 182.912 178.912C169.409 192.414 151.096 200 132 200L132 128H204Z" fill="#71357C"/>
<path d="M296 209C296 218.455 294.138 227.818 290.519 236.553C286.901 245.289 281.598 253.226 274.912 259.912C268.226 266.598 260.289 271.901 251.553 275.519C242.818 279.138 233.455 281 224 281V209H296Z" fill="#F35D5D"/>
<path d="M368 444C358.545 444 349.182 442.138 340.447 438.519C331.711 434.901 323.774 429.598 317.088 422.912C310.402 416.226 305.099 408.289 301.481 399.553C297.862 390.818 296 381.455 296 372L368 372V444Z" fill="#95D0D5"/>
<path d="M134 372C134 362.545 135.862 353.182 139.481 344.447C143.099 335.711 148.402 327.774 155.088 321.088C161.774 314.402 169.711 309.099 178.447 305.481C187.182 301.862 196.545 300 206 300L206 372H134Z" fill="#F35D5D"/>
<path d="M206 444C196.545 444 187.182 442.138 178.447 438.519C169.711 434.901 161.774 429.598 155.088 422.912C148.402 416.226 143.099 408.289 139.481 399.553C135.862 390.818 134 381.455 134 372L206 372L206 444Z" fill="#393939"/>
<path d="M368 292C368 301.455 366.138 310.818 362.519 319.553C358.901 328.289 353.598 336.226 346.912 342.912C340.226 349.598 332.289 354.901 323.553 358.519C314.818 362.138 305.455 364 296 364C286.545 364 277.182 362.138 268.447 358.519C259.711 354.901 251.774 349.598 245.088 342.912C238.402 336.226 233.099 328.289 229.481 319.553C225.862 310.818 224 301.455 224 292L296 292H368Z" fill="#71357C"/>
</svg>
